<svg xmlns="http://www.w3.org/2000/svg" width="280.423" height="280.423" style="enable-background:new 0 0 280.423 280.423" xml:space="preserve"><path d="M133.254.229c-3.06-.612-4.896 0-6.732 1.836-1.836.612-3.672 1.836-4.284 4.896-.612 4.284-.612 9.18-1.224 13.464 0 2.448 0 4.896-.612 6.732v6.12c-.612 2.448.612 4.896 3.06 5.508 0 2.448.612 4.896 3.672 6.12 56.917 37.332 75.889 162.792 2.448 191.556-1.224.612-1.836 1.224-2.448 1.836-1.224.612-3.06 1.224-3.672 3.061-3.672 9.18-4.284 18.359-4.896 28.151 0 3.061 2.448 6.12 5.508 7.344C264.223 315.409 257.49 29.605 133.254.229zM109.998 161.185c-.612-2.447-3.06-4.896-4.896-4.896-14.076-2.448-28.152-3.672-42.84 0-2.448.612-4.284 2.448-4.896 4.896-1.836 9.181-4.896 25.093 3.672 31.212 1.836 1.225 5.508 1.225 7.344-.611 6.12 7.344 22.644 4.896 31.212 3.672 3.06-.612 4.896-1.836 6.12-4.896 3.672-9.181 6.12-19.585 4.284-29.377zM105.102 72.445c-14.076 0-28.152 1.836-42.84 1.836-3.06 0-6.732 2.448-7.344 5.508-1.836 9.792-6.12 32.436 5.508 37.332 1.224.612 3.06 0 4.284-.612.612 1.224 1.836 2.448 3.672 1.836 11.016 0 22.032.612 32.436 1.224 3.672 0 6.12-3.06 6.732-6.732 1.224-10.404 2.448-20.808 4.284-31.212 1.224-4.896-1.224-9.18-6.732-9.18z"/></svg>